<?xml version="1.0" standalone="no"?><!DOCTYPE svg PUBLIC "-//W3C//DTD SVG 1.1//EN" "http://www.w3.org/Graphics/SVG/1.1/DTD/svg11.dtd"><svg t="1529482881232" class="icon" style="" viewBox="0 0 1024 1024" version="1.1" xmlns="http://www.w3.org/2000/svg" p-id="1199" xmlns:xlink="http://www.w3.org/1999/xlink" width="32" height="32"><defs><style type="text/css"></style></defs><path d="M512 0c-215.79776 0-448 65.06496-448 207.99488l0 608.01024c0 142.88896 232.20224 207.99488 448 207.99488 215.77728 0 448-65.1264 448-207.99488l0-608.01024c0-142.9504-232.26368-207.99488-448-207.99488zM896 816.00512c0 79.48288-171.9296 143.99488-384 143.99488-212.09088 0-384-64.512-384-143.99488l0-119.54176c66.10944 68.13696 225.60768 103.54688 384 103.54688s317.89056-35.4304 384-103.54688l0 119.54176zM896 624.00512l-0.12288 0c0 0.32768 0.12288 0.67584 0.12288 0.98304 0 79.01184-171.9296 143.01184-384 143.01184s-384-64-384-143.01184c0-0.32768 0.12288-0.67584 0.12288-0.98304l-0.12288 0 0-119.56224c66.10944 68.13696 225.60768 103.54688 384 103.54688s317.89056-35.4304 384-103.54688l0 119.56224zM896 432.00512l-0.12288 0c0 0.32768 0.12288 0.67584 0.12288 0.98304 0 79.01184-171.9296 143.01184-384 143.01184s-384-64-384-143.01184c0-0.32768 0.12288-0.67584 0.12288-0.98304l-0.12288 0 0-109.95712c83.8656 63.8976 237.60896 93.94176 384 93.94176s300.1344-30.04416 384-93.94176l0 109.95712zM512 352.01024c-212.09088 0-384-64.512-384-143.99488 0-79.54432 171.90912-143.99488 384-143.99488 212.0704 0 384 64.45056 384 143.99488 0 79.48288-171.9296 143.99488-384 143.99488zM768 832c0-17.67424 14.336-32.01024 32.01024-32.01024s32.01024 14.336 32.01024 32.01024c0 17.67424-14.336 32.01024-32.01024 32.01024s-32.01024-14.336-32.01024-32.01024zM768 640c0-17.67424 14.336-32.01024 32.01024-32.01024s32.01024 14.336 32.01024 32.01024c0 17.67424-14.336 32.01024-32.01024 32.01024s-32.01024-14.336-32.01024-32.01024zM768 448c0-17.67424 14.336-32.01024 32.01024-32.01024s32.01024 14.336 32.01024 32.01024c0 17.67424-14.336 32.01024-32.01024 32.01024s-32.01024-14.336-32.01024-32.01024z" p-id="1200"></path></svg>